<svg xmlns="http://www.w3.org/2000/svg" viewBox="0 0 200 200" fill="none">
  <!-- Analytics Illustration -->
  <circle cx="100" cy="100" r="80" fill="#E0E7FF"/>

  <!-- Chart background -->
  <rect x="50" y="55" width="100" height="90" rx="8" fill="white" stroke="#6366F1" stroke-width="2"/>

  <!-- Grid lines -->
  <line x1="60" y1="80" x2="140" y2="80" stroke="#E5E7EB" stroke-width="1"/>
  <line x1="60" y1="100" x2="140" y2="100" stroke="#E5E7EB" stroke-width="1"/>
  <line x1="60" y1="120" x2="140" y2="120" stroke="#E5E7EB" stroke-width="1"/>

  <!-- Line chart -->
  <path d="M65 115L80 100L95 110L110 85L125 95L135 75" stroke="#6366F1" stroke-width="3" fill="none" stroke-linecap="round" stroke-linejoin="round"/>

  <!-- Data points -->
  <circle cx="65" cy="115" r="4" fill="#6366F1"/>
  <circle cx="80" cy="100" r="4" fill="#6366F1"/>
  <circle cx="95" cy="110" r="4" fill="#6366F1"/>
  <circle cx="110" cy="85" r="4" fill="#6366F1"/>
  <circle cx="125" cy="95" r="4" fill="#6366F1"/>
  <circle cx="135" cy="75" r="4" fill="#6366F1"/>

  <!-- Trend arrow -->
  <path d="M120 60L135 60L135 75" stroke="#10B981" stroke-width="2" fill="none" stroke-linecap="round" stroke-linejoin="round"/>
  <circle cx="135" cy="60" r="8" fill="#10B981"/>
  <path d="M132 60L135 57L138 60" stroke="white" stroke-width="2" fill="none"/>

  <!-- Pie chart mini -->
  <circle cx="160" cy="140" r="15" fill="#F59E0B"/>
  <path d="M160 140L160 125A15 15 0 0 1 173 148Z" fill="#3B82F6"/>

  <!-- Bar mini -->
  <rect x="40" y="130" width="8" height="15" rx="2" fill="#8B5CF6"/>
  <rect x="50" y="125" width="8" height="20" rx="2" fill="#8B5CF6"/>
</svg>
