<svg xmlns="http://www.w3.org/2000/svg" viewBox="0 0 200 200" fill="none">
  <!-- BARQ Welcome Illustration -->
  <circle cx="100" cy="100" r="80" fill="#FEF3C7"/>

  <!-- Lightning bolt (BARQ logo element) -->
  <path d="M95 60L75 105H95L85 140L125 90H100L115 60H95Z" fill="#F59E0B" stroke="#D97706" stroke-width="2"/>

  <!-- Sparkles -->
  <circle cx="60" cy="70" r="4" fill="#FCD34D"/>
  <circle cx="140" cy="80" r="3" fill="#FCD34D"/>
  <circle cx="50" cy="120" r="3" fill="#FCD34D"/>
  <circle cx="150" cy="130" r="4" fill="#FCD34D"/>

  <!-- Stars -->
  <path d="M45 90L47 95L52 95L48 99L50 104L45 100L40 104L42 99L38 95L43 95Z" fill="#F59E0B"/>
  <path d="M155 100L157 105L162 105L158 109L160 114L155 110L150 114L152 109L148 105L153 105Z" fill="#F59E0B"/>
</svg>
